#define KDE_dragon_width 140
#define KDE_dragon_height 140
static unsigned char KDE_dragon_bits[] = {
   0x00, 0x00, 0x00, 0x00, 0x00, 0x00, 0x00, 0x00, 0x00, 0x00, 0x00, 0x00,
   0x00, 0x00, 0x00, 0x00, 0x00, 0x00, 0x00, 0x00, 0x00, 0x00, 0x00, 0x00,
   0x00, 0x00, 0x00, 0x00, 0x00, 0x00, 0x00, 0x00, 0x00, 0x00, 0x00, 0x00,
   0x00, 0x00, 0x00, 0x00, 0x00, 0x00, 0x00, 0x00, 0x00, 0x00, 0x00, 0x00,
   0x00, 0x00, 0x00, 0x00, 0x00, 0x00, 0x00, 0x00, 0x00, 0x00, 0x00, 0x02,
   0x00, 0x00, 0x00, 0x00, 0x00, 0x00, 0x00, 0x00, 0x00, 0x00, 0x00, 0x00,
   0x00, 0x00, 0x00, 0x00, 0x00, 0x08, 0x00, 0x00, 0x00, 0x00, 0x00, 0x00,
   0x00, 0x00, 0x00, 0x00, 0x00, 0x00, 0x00, 0x00, 0x00, 0x00, 0x00, 0x28,
   0x00, 0x00, 0x00, 0x00, 0x00, 0x00, 0x00, 0x00, 0x00, 0x00, 0x00, 0x00,
   0x00, 0x00, 0x00, 0x00, 0x00, 0x60, 0x01, 0x00, 0x00, 0x00, 0x00, 0x00,
   0x00, 0x00, 0x00, 0x00, 0x00, 0x00, 0x00, 0x00, 0x00, 0x00, 0x00, 0x00,
   0x01, 0x00, 0x00, 0x00, 0x00, 0x00, 0x00, 0x00, 0x00, 0x00, 0x00, 0x00,
   0x00, 0x00, 0x00, 0x00, 0x00, 0xa0, 0x06, 0x00, 0x00, 0x00, 0x00, 0x00,
   0x00, 0x00, 0x00, 0x00, 0x00, 0x00, 0x00, 0x00, 0x00, 0x00, 0x00, 0x00,
   0x08, 0x00, 0x00, 0x00, 0x10, 0x00, 0x00, 0x00, 0x00, 0x00, 0x00, 0x00,
   0x00, 0x00, 0x00, 0x00, 0x00, 0x00, 0x15, 0x00, 0x00, 0x00, 0xfc, 0x01,
   0x00, 0x00, 0x00, 0x00, 0x00, 0x00, 0x00, 0x00, 0x00, 0x00, 0x00, 0x00,
   0x28, 0x00, 0x00, 0x00, 0x00, 0x20, 0x00, 0x00, 0x00, 0x00, 0x00, 0x00,
   0x00, 0x00, 0x00, 0x00, 0x00, 0x40, 0x52, 0x00, 0x00, 0x00, 0x00, 0xe0,
   0x01, 0x00, 0x00, 0x00, 0x00, 0x00, 0x00, 0x00, 0x00, 0x00, 0x00, 0x08,
   0xa0, 0x00, 0x00, 0x20, 0x00, 0xc0, 0x07, 0x00, 0x00, 0x00, 0x00, 0x00,
   0x00, 0x00, 0x00, 0x00, 0x00, 0xa1, 0x4a, 0x01, 0x00, 0x68, 0x35, 0x00,
   0x0e, 0x00, 0x00, 0x00, 0x00, 0x00, 0x00, 0x00, 0x00, 0x00, 0xa0, 0x96,
   0x48, 0x01, 0x00, 0x18, 0x40, 0x00, 0x00, 0x00, 0x00, 0x00, 0x00, 0x00,
   0x00, 0x00, 0x00, 0x00, 0x68, 0xaf, 0x93, 0x02, 0x00, 0x08, 0x80, 0x1f,
   0x00, 0x00, 0x00, 0x00, 0x00, 0x00, 0x00, 0x00, 0x00, 0x80, 0x56, 0x50,
   0x96, 0x02, 0x00, 0x02, 0x00, 0x57, 0x00, 0x00, 0x00, 0x00, 0x00, 0x00,
   0x00, 0x00, 0x00, 0x00, 0x00, 0x89, 0x5c, 0x03, 0x00, 0x02, 0x00, 0x00,
   0x00, 0x00, 0x00, 0x00, 0x00, 0x00, 0x00, 0x00, 0x00, 0x00, 0x00, 0x10,
   0xb1, 0x06, 0x00, 0x03, 0x07, 0x00, 0x00, 0x00, 0x00, 0x00, 0x00, 0x00,
   0x00, 0x00, 0x00, 0x00, 0x00, 0x40, 0xf4, 0x0a, 0x00, 0xc2, 0x1f, 0x00,
   0x00, 0x00, 0x00, 0x00, 0x00, 0x00, 0x00, 0x00, 0x00, 0x00, 0x00, 0x08,
   0xc1, 0x0b, 0x80, 0xc2, 0x17, 0x00, 0x00, 0x00, 0x00, 0x00, 0x00, 0x00,
   0x00, 0x00, 0x00, 0x00, 0x00, 0x21, 0x6a, 0x17, 0x00, 0xe3, 0x3f, 0x38,
   0x00, 0x00, 0x00, 0x00, 0x00, 0x00, 0x00, 0x00, 0x00, 0x00, 0x00, 0xa2,
   0x4a, 0x0f, 0x80, 0xe2, 0x5f, 0x7f, 0x00, 0x00, 0x00, 0x00, 0x00, 0x00,
   0x00, 0x00, 0x00, 0x00, 0x00, 0xa8, 0xb6, 0x15, 0x40, 0xeb, 0xbf, 0xfe,
   0x00, 0x00, 0x00, 0x00, 0x00, 0x00, 0x00, 0x00, 0x00, 0x00, 0x40, 0x7a,
   0xf5, 0x17, 0x60, 0xeb, 0xff, 0xff, 0x00, 0x00, 0x00, 0x00, 0x00, 0x00,
   0x00, 0x00, 0x00, 0x00, 0x80, 0x07, 0x55, 0x17, 0x50, 0xfd, 0x57, 0xff,
   0x08, 0x00, 0x00, 0x00, 0x00, 0x00, 0x00, 0x00, 0x00, 0x00, 0x40, 0x21,
   0xa0, 0x3e, 0x58, 0xfb, 0x97, 0xff, 0x08, 0x00, 0x00, 0x00, 0x00, 0x00,
   0x00, 0x00, 0x00, 0x00, 0xb0, 0x84, 0x6a, 0x7d, 0x64, 0xfd, 0x2f, 0xfd,
   0x06, 0x00, 0x00, 0x00, 0x00, 0x00, 0x00, 0x00, 0x00, 0x00, 0x10, 0x00,
   0x40, 0x3d, 0xd6, 0xff, 0x5f, 0x01, 0x05, 0x00, 0x00, 0x00, 0x00, 0x00,
   0x00, 0x00, 0x00, 0x00, 0x0c, 0x90, 0xd4, 0x07, 0xad, 0xfe, 0x57, 0x54,
   0x04, 0x00, 0x00, 0x00, 0x00, 0x00, 0x00, 0x00, 0x00, 0x00, 0x02, 0x00,
   0xe8, 0x81, 0xea, 0xfb, 0x5f, 0x01, 0x50, 0x00, 0x00, 0x00, 0x00, 0x00,
   0x00, 0x00, 0x00, 0x00, 0x00, 0x80, 0x74, 0x40, 0x5f, 0xf5, 0x2b, 0x44,
   0xea, 0x07, 0x00, 0x00, 0x00, 0x00, 0x00, 0x00, 0x00, 0x00, 0x00, 0x00,
   0x3c, 0xa0, 0xff, 0x8b, 0xaa, 0x00, 0xe0, 0x07, 0x00, 0x00, 0x00, 0x00,
   0x00, 0x00, 0x00, 0x00, 0x00, 0x00, 0x1d, 0xe0, 0x5f, 0xaa, 0x02, 0x12,
   0xf4, 0x0f, 0x00, 0x00, 0x00, 0x00, 0x00, 0x00, 0x00, 0x00, 0x00, 0x08,
   0x0e, 0xd0, 0xff, 0xaa, 0x54, 0x40, 0xe0, 0x0f, 0x00, 0x00, 0x00, 0x00,
   0x00, 0x00, 0x00, 0x00, 0x00, 0x00, 0x0f, 0x70, 0x55, 0xab, 0xaa, 0x12,
   0xd5, 0x0f, 0x00, 0x00, 0x00, 0x00, 0x00, 0x00, 0x00, 0x00, 0x00, 0x00,
   0x0e, 0x08, 0xba, 0xba, 0x57, 0x25, 0xe0, 0x07, 0x00, 0x00, 0x00, 0x00,
   0x00, 0x00, 0x00, 0x00, 0x00, 0x80, 0x0f, 0x00, 0xd4, 0xd7, 0x5e, 0x55,
   0xd5, 0x07, 0x00, 0x00, 0x00, 0x00, 0x00, 0x00, 0x00, 0x00, 0x00, 0x02,
   0x06, 0x00, 0xb4, 0xfe, 0xff, 0x57, 0x05, 0x02, 0x00, 0x00, 0x00, 0x00,
   0x00, 0x00, 0x00, 0x00, 0x20, 0x2e, 0x0f, 0x00, 0xdc, 0xff, 0xff, 0xbe,
   0xba, 0x02, 0x00, 0x00, 0x00, 0x00, 0x00, 0x00, 0x00, 0x00, 0x00, 0x24,
   0x0a, 0x00, 0xf8, 0xfe, 0xff, 0xff, 0xab, 0x02, 0x00, 0x00, 0x00, 0x00,
   0x00, 0x00, 0x00, 0x00, 0x00, 0x40, 0x08, 0x00, 0xf8, 0xfd, 0xff, 0xff,
   0x7f, 0x05, 0x00, 0x00, 0x00, 0x00, 0x00, 0x00, 0x00, 0x00, 0x00, 0xfc,
   0x03, 0x00, 0xf8, 0xf0, 0xff, 0xff, 0xff, 0x07, 0x80, 0x00, 0x00, 0x00,
   0x00, 0x00, 0x00, 0xb0, 0x00, 0xff, 0x1f, 0x00, 0xff, 0xf4, 0xff, 0xff,
   0xff, 0x07, 0xa0, 0x07, 0x00, 0x00, 0x00, 0x00, 0x00, 0x3c, 0x01, 0xff,
   0x1f, 0xf0, 0xf7, 0xf8, 0xff, 0xff, 0xff, 0x07, 0x30, 0x0e, 0x00, 0x00,
   0x00, 0x00, 0x00, 0xa2, 0xf7, 0xbb, 0xb8, 0xf8, 0x5f, 0xfe, 0xff, 0xff,
   0xff, 0x03, 0xf0, 0x1f, 0x00, 0x00, 0x00, 0x00, 0x00, 0xc0, 0xbf, 0x06,
   0x30, 0xff, 0xfb, 0xfe, 0xff, 0x8f, 0xff, 0x03, 0xe8, 0x7f, 0x00, 0x00,
   0x00, 0x00, 0x00, 0xf0, 0x5f, 0x11, 0x7a, 0xfe, 0x2f, 0xff, 0xff, 0x8f,
   0xff, 0x03, 0xf4, 0xff, 0x01, 0x00, 0x00, 0x00, 0x00, 0x60, 0x01, 0x00,
   0xea, 0xfe, 0xef, 0xff, 0xff, 0x0f, 0x01, 0x00, 0xfe, 0xff, 0x03, 0x00,
   0x00, 0x00, 0x00, 0x10, 0x14, 0x06, 0x5a, 0xfd, 0xdf, 0xff, 0xff, 0x8f,
   0x01, 0x00, 0x6d, 0xff, 0x07, 0x00, 0x00, 0x00, 0x00, 0x04, 0x01, 0x08,
   0x76, 0xfd, 0xbf, 0xff, 0xff, 0x87, 0x00, 0x80, 0xcd, 0xaa, 0x0e, 0x00,
   0x00, 0x00, 0x00, 0x56, 0x16, 0x84, 0xdb, 0xf2, 0x7f, 0xff, 0xff, 0x4f,
   0x00, 0x60, 0x57, 0xf7, 0x0e, 0x00, 0x00, 0x00, 0x00, 0xae, 0x28, 0x80,
   0xdf, 0xf6, 0xff, 0xfd, 0xff, 0x03, 0x00, 0xd0, 0xab, 0xd6, 0x18, 0x00,
   0x00, 0x00, 0x00, 0x54, 0x00, 0x80, 0xff, 0xd5, 0xff, 0xfa, 0xff, 0x01,
   0x00, 0xee, 0xa4, 0xeb, 0x3e, 0x00, 0x00, 0x00, 0x00, 0xf4, 0x20, 0x00,
   0xbe, 0xb7, 0xff, 0x39, 0xff, 0x02, 0x80, 0xfd, 0x4a, 0xcb, 0x31, 0x00,
   0x00, 0x00, 0x00, 0x4c, 0x63, 0x00, 0xbc, 0x1d, 0xfc, 0x93, 0xff, 0x7b,
   0x7d, 0x5f, 0x55, 0xab, 0x6a, 0x00, 0x00, 0x00, 0x00, 0xe8, 0x62, 0x18,
   0x78, 0xb5, 0xfc, 0x93, 0xff, 0xcf, 0xf7, 0xaf, 0xa4, 0xa5, 0xe9, 0x00,
   0x00, 0x00, 0x00, 0x58, 0xb1, 0x30, 0x60, 0x0f, 0xf8, 0x67, 0xfe, 0xbf,
   0xff, 0x13, 0x49, 0xd3, 0xa1, 0x00, 0x00, 0x00, 0x00, 0x50, 0xe0, 0xf0,
   0xf8, 0x3a, 0xfe, 0xe7, 0xfc, 0xff, 0x07, 0x24, 0xd1, 0x15, 0xcb, 0x00,
   0x00, 0x00, 0x00, 0x50, 0xa0, 0x60, 0xfe, 0x41, 0xff, 0xe7, 0xf3, 0x7f,
   0x01, 0x00, 0xe8, 0xe0, 0xa1, 0x01, 0x00, 0x00, 0x00, 0x30, 0xa5, 0x39,
   0x78, 0x00, 0xfe, 0xef, 0xff, 0xff, 0x03, 0x00, 0xc0, 0x8a, 0x45, 0x01,
   0x00, 0x00, 0x00, 0x60, 0x09, 0x17, 0x70, 0xdf, 0xff, 0xff, 0xff, 0xfc,
   0x07, 0x00, 0x75, 0xd1, 0xa0, 0x01, 0x00, 0x00, 0x00, 0x60, 0x02, 0x80,
   0xfa, 0xfc, 0xff, 0xff, 0xbf, 0xc3, 0x0f, 0x00, 0x38, 0xa2, 0x05, 0x03,
   0x00, 0x00, 0x00, 0x40, 0x04, 0xc1, 0xff, 0xeb, 0xff, 0xff, 0xff, 0x06,
   0x3e, 0x00, 0x5e, 0xc8, 0x80, 0x02, 0x00, 0x00, 0x00, 0xc0, 0x08, 0x42,
   0xad, 0xfe, 0xff, 0xff, 0x7f, 0x0d, 0x68, 0x00, 0x4c, 0xd0, 0x02, 0x02,
   0x00, 0x00, 0x00, 0xc0, 0xa0, 0xe2, 0xf1, 0xff, 0xff, 0xff, 0xff, 0x0a,
   0xb4, 0x00, 0x07, 0xa0, 0x00, 0x03, 0x00, 0x00, 0x00, 0x80, 0x01, 0x95,
   0xff, 0xff, 0xff, 0xff, 0xff, 0x3a, 0xe0, 0x81, 0x01, 0x60, 0x01, 0x02,
   0x00, 0x00, 0x00, 0x80, 0x28, 0xfe, 0xff, 0xff, 0xff, 0xff, 0x7f, 0x6b,
   0x50, 0x45, 0x00, 0x54, 0x00, 0x04, 0x00, 0x00, 0x00, 0x80, 0xeb, 0x43,
   0xff, 0xff, 0x5b, 0xf5, 0x7f, 0xd5, 0x81, 0x25, 0x00, 0x60, 0x00, 0x00,
   0x00, 0x00, 0x00, 0x00, 0x04, 0x00, 0xfd, 0xd7, 0xfe, 0x4b, 0xbb, 0xaa,
   0x42, 0x17, 0x00, 0x30, 0x00, 0x00, 0x00, 0x00, 0x00, 0x00, 0x00, 0x00,
   0xf8, 0xff, 0xab, 0x5a, 0xe5, 0xb6, 0x46, 0x16, 0x00, 0x10, 0x00, 0x00,
   0x00, 0x00, 0x00, 0x00, 0x00, 0x80, 0xfe, 0x57, 0xdf, 0xad, 0xbe, 0xd5,
   0x0d, 0x5d, 0x00, 0x10, 0x00, 0x00, 0x00, 0x00, 0x00, 0x00, 0x00, 0x80,
   0xff, 0xfe, 0x5a, 0xb5, 0x75, 0xad, 0x0a, 0x58, 0x00, 0x10, 0x00, 0x00,
   0x08, 0x00, 0x00, 0x00, 0x00, 0xc0, 0xb7, 0xab, 0xb5, 0xdb, 0x1e, 0xbd,
   0x1d, 0xb2, 0x00, 0x00, 0x00, 0x00, 0x30, 0x00, 0x00, 0x00, 0x00, 0xf0,
   0x76, 0x7d, 0x6f, 0x95, 0x55, 0xf5, 0x35, 0x60, 0x01, 0x00, 0x00, 0x00,
   0xd0, 0x00, 0x00, 0x00, 0x00, 0xf8, 0xdf, 0x4b, 0xd9, 0x16, 0x2a, 0xbf,
   0x57, 0xa8, 0x05, 0x00, 0x00, 0x00, 0xa0, 0x01, 0x00, 0x00, 0x00, 0xaf,
   0xb4, 0x7a, 0xdb, 0xb6, 0x6a, 0x7f, 0x3d, 0x20, 0x05, 0x00, 0x00, 0x00,
   0xc0, 0x06, 0x00, 0x00, 0x80, 0x7f, 0x6f, 0xcb, 0xfe, 0x5f, 0xfd, 0xff,
   0x6b, 0x80, 0x1a, 0x00, 0x00, 0x00, 0x80, 0x3e, 0x00, 0x00, 0xf8, 0xd7,
   0xda, 0xaa, 0x6a, 0xff, 0xff, 0xfa, 0x6f, 0x00, 0x2a, 0x00, 0x00, 0x00,
   0x80, 0xfa, 0x0f, 0x00, 0x7f, 0x35, 0x55, 0x5b, 0xfd, 0xff, 0xbf, 0xfe,
   0xdd, 0x00, 0x54, 0x01, 0x00, 0x00, 0x00, 0xd5, 0xff, 0xfd, 0x6f, 0xd5,
   0xb6, 0x6a, 0xf5, 0xff, 0x6a, 0xfd, 0xdb, 0x40, 0x50, 0x01, 0x00, 0x00,
   0x00, 0x54, 0xfa, 0xff, 0x5d, 0x21, 0xad, 0xaa, 0xfd, 0xbf, 0xb5, 0xff,
   0xbf, 0x01, 0xa0, 0x06, 0x00, 0x00, 0x00, 0x50, 0x55, 0x5f, 0xab, 0x4a,
   0xd5, 0x2a, 0xfb, 0xff, 0xf7, 0xdf, 0x7f, 0x01, 0x82, 0x0a, 0x00, 0x00,
   0x00, 0x40, 0xa5, 0x54, 0x55, 0xa1, 0x5a, 0xd5, 0xfe, 0xff, 0xff, 0x5f,
   0xef, 0x41, 0x20, 0x15, 0x00, 0x00, 0x00, 0x80, 0xaa, 0x52, 0x2a, 0xa5,
   0xaa, 0xaa, 0xfe, 0xff, 0xff, 0xa7, 0xbf, 0x81, 0x04, 0x34, 0x00, 0x00,
   0x00, 0x00, 0xa8, 0xaa, 0x52, 0xa0, 0xaa, 0xaa, 0xff, 0xff, 0xff, 0x97,
   0xfe, 0x01, 0x00, 0xaa, 0x00, 0x00, 0x00, 0x00, 0x40, 0x89, 0x94, 0xa5,
   0x6a, 0x55, 0xff, 0xff, 0xff, 0x93, 0xde, 0x01, 0x55, 0x50, 0x01, 0x00,
   0x00, 0x00, 0x00, 0x2a, 0x21, 0xa0, 0x56, 0xd5, 0xff, 0xff, 0xff, 0x23,
   0xfb, 0x03, 0x20, 0x51, 0x05, 0x00, 0x00, 0x00, 0x00, 0x20, 0x45, 0xa2,
   0x54, 0x95, 0xff, 0xff, 0xff, 0x45, 0xfe, 0x01, 0x45, 0x43, 0x0a, 0x00,
   0x00, 0x00, 0x00, 0x00, 0x00, 0x50, 0x55, 0xd5, 0xff, 0xff, 0x7f, 0xa8,
   0xfe, 0x01, 0x08, 0x8f, 0x2a, 0x00, 0x00, 0x00, 0x00, 0x00, 0x00, 0xc0,
   0xaa, 0xaa, 0xff, 0xff, 0x2f, 0x81, 0xea, 0x01, 0x48, 0x5e, 0x15, 0x00,
   0x00, 0x00, 0x00, 0x00, 0x00, 0xa0, 0xaa, 0xaa, 0xff, 0xff, 0x03, 0xa8,
   0xfe, 0x01, 0x10, 0x1d, 0x35, 0x00, 0x00, 0x00, 0x00, 0x00, 0x00, 0xa0,
   0xaa, 0xaa, 0xff, 0x3f, 0x00, 0x00, 0xfd, 0x01, 0x30, 0x1e, 0x20, 0x00,
   0x00, 0x00, 0x00, 0x00, 0x00, 0x60, 0xb5, 0xd5, 0xff, 0x07, 0x00, 0x40,
   0xff, 0x00, 0x70, 0x1c, 0x10, 0x00, 0x00, 0x00, 0x00, 0x00, 0x00, 0xa0,
   0xaa, 0xae, 0xff, 0x00, 0x80, 0x00, 0xfd, 0x00, 0x70, 0x18, 0x00, 0x00,
   0x00, 0x00, 0x00, 0x00, 0x00, 0x40, 0xb5, 0xb5, 0x3f, 0x00, 0x00, 0x88,
   0xfe, 0x00, 0x78, 0x1e, 0x00, 0x00, 0x00, 0x00, 0x00, 0x00, 0x00, 0xa0,
   0xea, 0xff, 0x03, 0x00, 0x00, 0xa0, 0x7f, 0x00, 0x30, 0x0c, 0x00, 0x00,
   0x00, 0x00, 0x00, 0x00, 0x00, 0x60, 0xad, 0xef, 0x00, 0x00, 0x00, 0xd4,
   0x3f, 0x00, 0x1c, 0x0d, 0x00, 0x00, 0x00, 0x00, 0x00, 0x00, 0x00, 0xa0,
   0xfa, 0xff, 0x00, 0x00, 0x00, 0xf0, 0x1f, 0x00, 0x28, 0x06, 0x00, 0x00,
   0x00, 0x00, 0x00, 0x00, 0x00, 0x90, 0xfe, 0x7f, 0x00, 0x00, 0x00, 0xf4,
   0x0f, 0x00, 0x80, 0x07, 0x00, 0x00, 0x00, 0x00, 0x00, 0x00, 0x00, 0x50,
   0xfb, 0x3f, 0x00, 0x00, 0x78, 0xf0, 0x07, 0x00, 0x00, 0x02, 0x00, 0x00,
   0x00, 0x00, 0x00, 0x00, 0x00, 0x40, 0xff, 0x3f, 0x00, 0x00, 0x36, 0xf8,
   0x07, 0x00, 0xc0, 0x01, 0x00, 0x00, 0x00, 0x00, 0x00, 0x00, 0x00, 0xa8,
   0xff, 0x1f, 0x00, 0x00, 0x00, 0xf0, 0x03, 0x00, 0x00, 0x00, 0x00, 0x00,
   0x00, 0x00, 0x00, 0x00, 0x00, 0xa0, 0xff, 0x0f, 0x00, 0x00, 0x44, 0xf8,
   0x07, 0x00, 0x40, 0x00, 0x00, 0x00, 0x00, 0x00, 0x00, 0x00, 0x00, 0xd0,
   0xff, 0x07, 0x00, 0x00, 0x00, 0xf8, 0x07, 0x00, 0x00, 0x00, 0x00, 0x00,
   0x00, 0x00, 0x00, 0x00, 0x00, 0xe0, 0xff, 0x07, 0x00, 0x00, 0x00, 0xf8,
   0x0f, 0x00, 0x00, 0x00, 0x00, 0x00, 0x00, 0x00, 0x00, 0x00, 0x00, 0xa8,
   0xff, 0x01, 0x00, 0x00, 0x40, 0xf8, 0x0f, 0x00, 0x00, 0x00, 0x00, 0x00,
   0x00, 0x00, 0x00, 0x00, 0x00, 0xf8, 0xff, 0x01, 0x00, 0x00, 0x00, 0xfa,
   0x1f, 0x00, 0x00, 0x00, 0x00, 0x00, 0x00, 0x00, 0x00, 0x00, 0x00, 0xa4,
   0x7f, 0x00, 0x00, 0x00, 0x00, 0xf8, 0x3b, 0x00, 0x00, 0x00, 0x00, 0x00,
   0x00, 0x00, 0x00, 0x00, 0x00, 0x7a, 0x7f, 0x00, 0x00, 0x00, 0x00, 0xfc,
   0x6f, 0x00, 0x00, 0x00, 0x00, 0x00, 0x00, 0x00, 0x00, 0x00, 0x00, 0xd5,
   0x3f, 0x00, 0x00, 0x00, 0x00, 0xf0, 0xdf, 0x00, 0x00, 0x00, 0x00, 0x00,
   0x00, 0x00, 0x00, 0x00, 0x80, 0x6f, 0x1f, 0x00, 0x00, 0x00, 0x00, 0xf8,
   0x55, 0x01, 0x00, 0x00, 0x00, 0x00, 0x00, 0x00, 0x00, 0x00, 0x40, 0xfd,
   0x1e, 0x00, 0x00, 0x00, 0x00, 0xa0, 0xdf, 0x02, 0x00, 0x00, 0x00, 0x00,
   0x00, 0x00, 0x00, 0x00, 0xf0, 0xd7, 0x0b, 0x00, 0x00, 0x00, 0x00, 0xfa,
   0xaa, 0x02, 0x00, 0x00, 0x00, 0x00, 0x00, 0x00, 0x00, 0x00, 0x44, 0x7d,
   0x0f, 0x00, 0x00, 0x00, 0x10, 0xa0, 0xff, 0x0e, 0x00, 0x00, 0x00, 0x00,
   0x00, 0x00, 0x00, 0x00, 0x59, 0xab, 0x0d, 0x00, 0x00, 0x00, 0x00, 0xd0,
   0x4a, 0x29, 0x00, 0x00, 0x00, 0x00, 0x00, 0x00, 0x00, 0x50, 0xd2, 0xbe,
   0x0d, 0x00, 0x00, 0x00, 0x00, 0x50, 0xfb, 0xbf, 0x00, 0x00, 0x00, 0x00,
   0x00, 0x00, 0x00, 0xa8, 0xaa, 0x6a, 0x0b, 0x00, 0x00, 0x00, 0x00, 0xa0,
   0xdd, 0xfb, 0x07, 0x00, 0x00, 0x00, 0x00, 0x00, 0x00, 0x4a, 0x40, 0x6d,
   0x0b, 0x00, 0x00, 0x00, 0x80, 0x80, 0xfb, 0x56, 0x1d, 0x00, 0x00, 0x00,
   0x00, 0x00, 0x80, 0xaa, 0xaa, 0xda, 0x0d, 0x00, 0x00, 0x00, 0x00, 0x40,
   0xa0, 0xeb, 0x1b, 0x00, 0x00, 0x00, 0x00, 0x00, 0xe0, 0xab, 0x00, 0x55,
   0x0f, 0x00, 0x00, 0x00, 0x00, 0x01, 0x52, 0x9f, 0x0e, 0x00, 0x00, 0x00,
   0x00, 0x00, 0xb8, 0xaa, 0x4a, 0xba, 0x1d, 0x00, 0x00, 0x00, 0x00, 0x00,
   0xa0, 0x6e, 0x03, 0x00, 0x00, 0x00, 0x00, 0x00, 0xbe, 0xdd, 0xda, 0x6a,
   0x15, 0x00, 0x00, 0x00, 0x00, 0x08, 0x00, 0xb8, 0x01, 0x00, 0x00, 0x00,
   0x00, 0x00, 0xe6, 0xfa, 0x55, 0xd5, 0x1f, 0x00, 0x00, 0x00, 0x00, 0x20,
   0x08, 0x68, 0x00, 0x00, 0x00, 0x00, 0x00, 0x00, 0xc0, 0xab, 0xf7, 0xb6,
   0x3a, 0x00, 0x00, 0x00, 0x00, 0x40, 0x13, 0x60, 0x00, 0x00, 0x00, 0x00,
   0x00, 0x00, 0x80, 0xff, 0xac, 0xdb, 0x37, 0x00, 0x00, 0x00, 0x00, 0x00,
   0x28, 0x70, 0x00, 0x00, 0x00, 0x00, 0x00, 0x00, 0xa0, 0x37, 0xf8, 0xbf,
   0x36, 0x00, 0x00, 0x00, 0x00, 0x00, 0x00, 0x00, 0x00, 0x00, 0x00, 0x00,
   0x00, 0x00, 0xa0, 0x1f, 0xf0, 0xf7, 0x3f, 0x00, 0x00, 0x00, 0x00, 0x00,
   0x00, 0x00, 0x00, 0x00, 0x00, 0x00, 0x00, 0x00, 0xa0, 0x1b, 0xf0, 0x7f,
   0x75, 0x00, 0x00, 0x00, 0x00, 0x00, 0x00, 0x00, 0x00, 0x00, 0x00, 0x00,
   0x00, 0x00, 0xd4, 0x0f, 0xf0, 0x2f, 0x3c, 0x00, 0x00, 0x00, 0x00, 0x00,
   0x00, 0x00, 0x00, 0x00, 0x00, 0x00, 0x00, 0x00, 0xf0, 0x0f, 0xf0, 0x1f,
   0x70, 0x00, 0x00, 0x00, 0x00, 0x00, 0x00, 0x00, 0x00, 0x00, 0x00, 0x00,
   0x00, 0x00, 0x0e, 0x06, 0xfc, 0x0f, 0x38, 0x00, 0x00, 0x00, 0x00, 0x00,
   0x00, 0x00, 0x00, 0x00, 0x00, 0x00, 0x00, 0x80, 0x00, 0x00, 0xf8, 0x0f,
   0x38, 0x00, 0x00, 0x00, 0x00, 0x00, 0x00, 0x00, 0x00, 0x00, 0x00, 0x00,
   0x00, 0x00, 0x00, 0x00, 0xf5, 0x0b, 0x38, 0x00, 0x00, 0x00, 0x00, 0x00,
   0x00, 0x00, 0x00, 0x00, 0x00, 0x00, 0x00, 0x00, 0x00, 0x00, 0x00, 0x00,
   0x08, 0x00, 0x00, 0x00, 0x00, 0x00, 0x00, 0x00, 0x00, 0x00, 0x00, 0x00,
   0x00, 0x00, 0x00, 0x00, 0x00, 0x00, 0x00, 0x00, 0x00, 0x00, 0x00, 0x00,
   0x00, 0x00, 0x00, 0x00, 0x00, 0x00, 0x00, 0x00, 0x00, 0x00, 0x00, 0x00,
   0x00, 0x00, 0x00, 0x00, 0x00, 0x00, 0x00, 0x00, 0x00, 0x00, 0x00, 0x00,
   0x00, 0x00, 0x00, 0x00, 0x00, 0x00, 0x00, 0x00, 0x00, 0x00, 0x00, 0x00,
   0x00, 0x00, 0x00, 0x00, 0x00, 0x00, 0x00, 0x00, 0x00, 0x00, 0x00, 0x00,
   0x00, 0x00, 0x00, 0x00, 0x00, 0x20, 0x00, 0x00, 0x00, 0x00, 0x00, 0x00 };
